<svg viewBox="0 0 239.363 78.7803" xmlns="http://www.w3.org/2000/svg" xmlns:xlink="http://www.w3.org/1999/xlink" width="239.362671" height="78.780273" fill="none" customFrame="#000000">
	<path id="Форма 1" d="M129.66 64.8721C126.93 62.5225 124.294 60.0137 121.754 57.3467C119.277 54.6162 116.959 51.8213 114.8 48.9639C112.704 46.1055 110.767 43.2158 108.989 40.2949C107.274 37.3105 105.813 34.3887 104.607 31.5312C102.448 33.8809 100.288 36.2627 98.129 38.6758C96.0333 41.0254 94.1598 43.4072 92.5087 45.8203C90.8574 48.1699 89.5238 50.5518 88.5077 52.9648C87.4281 55.3145 86.8883 57.6641 86.8883 60.0137C86.8883 62.8086 87.3646 65.2217 88.3171 67.2539C89.2063 69.2227 90.413 70.8418 91.9371 72.1123C93.4613 73.3818 95.2078 74.3027 97.1764 74.875C99.1451 75.4463 101.177 75.7314 103.273 75.7314C107.465 75.7314 111.91 74.7471 116.61 72.7793C121.309 70.8105 125.659 68.1748 129.66 64.8721ZM117.848 8.38281C117.848 6.16016 117.34 4.57227 116.324 3.61914C115.371 2.60352 114.323 2.0957 113.18 2.0957C112.228 2.0957 111.212 2.41309 110.132 3.04785C109.116 3.68262 108.163 4.60352 107.274 5.81055C106.448 6.9541 105.75 8.35059 105.178 10.002C104.607 11.6533 104.321 13.4629 104.321 15.4316C104.321 19.0518 104.988 22.8936 106.321 26.958C107.909 25.3076 109.401 23.6875 110.799 22.1006C112.196 20.5127 113.402 18.9561 114.419 17.4326C115.498 15.8447 116.324 14.3203 116.895 12.8594C117.531 11.3359 117.848 9.84375 117.848 8.38281ZM154.523 77.9229C154.523 78.1133 154.396 78.3037 154.142 78.4941C153.888 78.6846 153.507 78.7803 152.999 78.7803C149.189 77.5732 145.442 75.8906 141.758 73.7314C138.075 71.5088 134.487 68.9365 130.994 66.0156C128.581 67.8574 126.072 69.54 123.468 71.0645C120.865 72.5879 118.197 73.8906 115.466 74.9697C112.799 76.0498 110.1 76.875 107.369 77.4463C104.702 78.0186 102.13 78.3037 99.6532 78.3037C97.24 78.3037 94.9537 77.9551 92.7944 77.2559C90.6353 76.6211 88.7617 75.6367 87.1741 74.3027C85.5864 72.9062 84.348 71.1914 83.4589 69.1592C82.5062 67.127 82.03 64.7451 82.03 62.0146C82.03 59.0928 82.6968 56.2354 84.0304 53.4404C85.3641 50.583 87.0787 47.7891 89.1746 45.0576C91.2703 42.3271 93.5883 39.6602 96.1285 37.0557C98.7323 34.4521 101.273 31.9121 103.749 29.4355C101.908 24.4814 100.987 20.0049 100.987 16.0039C100.987 13.6533 101.4 11.4941 102.225 9.52539C103.114 7.55664 104.226 5.87402 105.559 4.47656C106.893 3.08008 108.354 2 109.941 1.23828C111.593 0.412109 113.148 0 114.609 0C116.324 0 117.88 0.571289 119.277 1.71484C120.674 2.79395 121.373 4.60352 121.373 7.14453C121.373 8.73145 120.96 10.3828 120.134 12.0977C119.372 13.8125 118.324 15.5908 116.991 17.4326C115.72 19.2109 114.196 21.084 112.418 23.0527C110.703 24.958 108.893 26.9268 106.988 28.959C109.084 34.7383 112.196 40.6123 116.324 46.582C120.515 52.4883 125.596 58.0137 131.566 63.1572C134.804 60.2363 137.408 57.0293 139.377 53.5361C141.346 50.043 142.33 46.3916 142.33 42.5811C142.33 41.3115 142.14 40.041 141.758 38.7705C141.441 37.4375 140.774 36.04 139.758 34.5791C139.758 34.4521 139.948 34.3252 140.329 34.1982C140.711 34.0078 141.06 33.9121 141.377 33.9121C142.266 33.9121 142.965 34.2305 143.473 34.8652C144.045 35.4365 144.458 36.1348 144.712 36.9609C145.029 37.7861 145.22 38.6436 145.283 39.5332C145.41 40.3584 145.474 41.0254 145.474 41.5332C145.474 45.7246 144.299 49.7891 141.949 53.7266C139.663 57.6006 136.678 61.1572 132.995 64.3955C139.155 69.667 146.109 73.9541 153.857 77.2559C154.301 77.5098 154.523 77.7324 154.523 77.9229Z" fill="rgb(208.25,208.25,208.25)" fill-rule="nonzero" />
	<path id="Форма 1" d="M18.224 43.917C18.224 41.9326 18.0961 40.2852 17.84 38.9727C17.616 37.6611 17.296 37.0049 16.88 37.0049C16.624 37.0049 16.384 37.1973 16.16 37.5811C15.936 37.9326 15.744 38.4453 15.584 39.1172C15.4561 39.7568 15.344 40.5254 15.248 41.4209C15.184 42.2852 15.152 43.2295 15.152 44.2529C15.152 46.0771 15.28 48.0449 15.536 50.1572C15.792 52.2373 16.24 54.2529 16.88 56.2051C17.328 54.1572 17.6641 52.0615 17.8881 49.917C18.1121 47.7412 18.224 45.7412 18.224 43.917ZM38.3361 22.125C38.3361 22.2852 38.272 22.4131 38.144 22.5088C38.016 22.6055 37.856 22.7168 37.6641 22.8447C36.704 23.4209 35.92 24.2207 35.312 25.2451C34.704 26.2695 34.208 27.3887 33.824 28.6055C33.472 29.8213 33.2321 31.0693 33.104 32.3486C32.976 33.5967 32.912 34.749 32.912 35.8047C32.912 36.541 32.944 37.4531 33.0081 38.541C33.104 39.5967 33.2001 40.7646 33.296 42.0449C33.424 43.3252 33.52 44.6855 33.584 46.125C33.6801 47.5332 33.728 48.9727 33.728 50.4453C33.728 52.5254 33.6 54.541 33.344 56.4932C33.12 58.4453 32.656 60.1895 31.952 61.7246C31.28 63.2607 30.3361 64.4932 29.12 65.4209C27.9041 66.3486 26.3199 66.8135 24.368 66.8135C23.472 66.8135 22.624 66.6367 21.824 66.2852C21.056 65.9648 20.3361 65.501 19.6641 64.8926C19.024 64.2852 18.432 63.5811 17.8881 62.7812C17.376 61.9814 16.912 61.1006 16.496 60.1406C16.08 61.2607 15.584 62.3008 15.0081 63.2607C14.464 64.2207 13.856 65.0527 13.184 65.7568C12.512 66.4609 11.776 67.0049 10.976 67.3887C10.176 67.7734 9.328 67.9648 8.43201 67.9648C7.05603 67.9648 5.88806 67.6133 4.92798 66.9092C4 66.2051 3.23206 65.2773 2.62402 64.125C2.01599 63.0049 1.53601 61.7246 1.18396 60.2852C0.864014 58.8135 0.624023 57.3252 0.463989 55.8213C0.303955 54.2852 0.192017 52.7969 0.128052 51.3574C0.0960693 49.8848 0.0639648 48.5889 0.0319824 47.4688C-0.0319824 45.4531 0 43.5488 0.128052 41.7568C0.287964 39.9326 0.463989 38.3008 0.656006 36.8613C0.848022 35.3887 1.04004 34.125 1.23206 33.0693C1.42395 32.0127 1.552 31.2295 1.61597 30.7168C1.64795 30.5254 1.83997 30.3975 2.19202 30.333C2.57605 30.2695 2.91199 30.2373 3.19995 30.2373C3.42395 30.2373 3.61597 30.2695 3.776 30.333C3.93604 30.3652 4.01599 30.4609 4.01599 30.6211C4.01599 30.8135 3.93604 31.1494 3.776 31.6289C3.61597 32.0771 3.37598 32.9414 3.05603 34.2207C2.92798 34.7969 2.78406 35.6289 2.62402 36.7168C2.49597 37.7734 2.36804 38.9727 2.23999 40.3174C2.14404 41.6611 2.06396 43.1006 2 44.6367C1.93604 46.1406 1.90405 47.6133 1.90405 49.0527C1.90405 50.1729 1.95203 51.4053 2.04797 52.749C2.14404 54.0615 2.30396 55.373 2.52795 56.6855C2.75195 57.9648 3.05603 59.2129 3.44006 60.4287C3.82397 61.6455 4.28796 62.7168 4.83203 63.6455C5.40796 64.5732 6.07996 65.3086 6.84802 65.8535C7.61597 66.4287 8.51196 66.7168 9.53601 66.7168C10.304 66.7168 11.0081 66.5254 11.6479 66.1406C12.288 65.7568 12.88 65.2129 13.424 64.5088C13.968 63.8369 14.448 63.0371 14.864 62.1094C15.312 61.1807 15.712 60.1729 16.064 59.085C15.328 57.0693 14.7841 54.9248 14.432 52.6533C14.08 50.3809 13.9041 48.2852 13.9041 46.3652C13.9041 44.957 13.952 43.5654 14.048 42.1895C14.176 40.8135 14.3521 39.5811 14.576 38.4932C14.8 37.4053 15.088 36.5254 15.4401 35.8535C15.792 35.1807 16.208 34.8447 16.688 34.8447C17.072 34.8447 17.408 35.085 17.696 35.5654C18.016 36.0449 18.272 36.7012 18.464 37.5332C18.688 38.3652 18.848 39.3574 18.944 40.5088C19.072 41.6289 19.136 42.8447 19.136 44.1572C19.136 46.2695 18.9921 48.4932 18.704 50.8291C18.416 53.1328 17.968 55.3887 17.36 57.5967C17.776 58.7168 18.256 59.7568 18.8 60.7168C19.344 61.6455 19.952 62.4609 20.624 63.165C21.328 63.8691 22.0961 64.4131 22.928 64.7969C23.792 65.2129 24.736 65.4209 25.76 65.4209C27.168 65.4209 28.3201 65.0693 29.2161 64.3652C30.1121 63.6934 30.816 62.7646 31.328 61.5811C31.84 60.3652 32.192 58.9727 32.384 57.4053C32.576 55.8047 32.672 54.0928 32.672 52.2695C32.672 50.6367 32.608 48.957 32.48 47.2295C32.384 45.501 32.272 43.7891 32.144 42.0928C32.016 40.3652 31.8881 38.7012 31.76 37.1006C31.6641 35.4688 31.616 33.9648 31.616 32.5889C31.616 31.5967 31.76 30.4453 32.048 29.1328C32.368 27.8213 32.7841 26.5889 33.296 25.4375C33.84 24.2529 34.448 23.2607 35.12 22.4609C35.824 21.6289 36.5601 21.2129 37.328 21.2129C37.552 21.2129 37.776 21.3252 38 21.5488C38.224 21.7412 38.3361 21.9326 38.3361 22.125Z" fill="rgb(208.25,208.25,208.25)" fill-rule="nonzero" />
	<path id="Форма 1" d="M18.224 43.917C18.224 41.9326 18.0961 40.2852 17.84 38.9727C17.616 37.6611 17.296 37.0049 16.88 37.0049C16.624 37.0049 16.384 37.1973 16.16 37.5811C15.936 37.9326 15.744 38.4453 15.584 39.1172C15.4561 39.7568 15.344 40.5254 15.248 41.4209C15.184 42.2852 15.152 43.2295 15.152 44.2529C15.152 46.0771 15.28 48.0449 15.536 50.1572C15.792 52.2373 16.24 54.2529 16.88 56.2051C17.328 54.1572 17.6641 52.0615 17.8881 49.917C18.1121 47.7412 18.224 45.7412 18.224 43.917ZM38.3361 22.125C38.3361 22.2852 38.272 22.4131 38.144 22.5088C38.016 22.6055 37.856 22.7168 37.6641 22.8447C36.704 23.4209 35.92 24.2207 35.312 25.2451C34.704 26.2695 34.208 27.3887 33.824 28.6055C33.472 29.8213 33.2321 31.0693 33.104 32.3486C32.976 33.5967 32.912 34.749 32.912 35.8047C32.912 36.541 32.944 37.4531 33.0081 38.541C33.104 39.5967 33.2001 40.7646 33.296 42.0449C33.424 43.3252 33.52 44.6855 33.584 46.125C33.6801 47.5332 33.728 48.9727 33.728 50.4453C33.728 52.5254 33.6 54.541 33.344 56.4932C33.12 58.4453 32.656 60.1895 31.952 61.7246C31.28 63.2607 30.3361 64.4932 29.12 65.4209C27.9041 66.3486 26.3199 66.8135 24.368 66.8135C23.472 66.8135 22.624 66.6367 21.824 66.2852C21.056 65.9648 20.3361 65.501 19.6641 64.8926C19.024 64.2852 18.432 63.5811 17.8881 62.7812C17.376 61.9814 16.912 61.1006 16.496 60.1406C16.08 61.2607 15.584 62.3008 15.0081 63.2607C14.464 64.2207 13.856 65.0527 13.184 65.7568C12.512 66.4609 11.776 67.0049 10.976 67.3887C10.176 67.7734 9.328 67.9648 8.43201 67.9648C7.05603 67.9648 5.88806 67.6133 4.92798 66.9092C4 66.2051 3.23206 65.2773 2.62402 64.125C2.01599 63.0049 1.53601 61.7246 1.18396 60.2852C0.864014 58.8135 0.624023 57.3252 0.463989 55.8213C0.303955 54.2852 0.192017 52.7969 0.128052 51.3574C0.0960693 49.8848 0.0639648 48.5889 0.0319824 47.4688C-0.0319824 45.4531 0 43.5488 0.128052 41.7568C0.287964 39.9326 0.463989 38.3008 0.656006 36.8613C0.848022 35.3887 1.04004 34.125 1.23206 33.0693C1.42395 32.0127 1.552 31.2295 1.61597 30.7168C1.64795 30.5254 1.83997 30.3975 2.19202 30.333C2.57605 30.2695 2.91199 30.2373 3.19995 30.2373C3.42395 30.2373 3.61597 30.2695 3.776 30.333C3.93604 30.3652 4.01599 30.4609 4.01599 30.6211C4.01599 30.8135 3.93604 31.1494 3.776 31.6289C3.61597 32.0771 3.37598 32.9414 3.05603 34.2207C2.92798 34.7969 2.78406 35.6289 2.62402 36.7168C2.49597 37.7734 2.36804 38.9727 2.23999 40.3174C2.14404 41.6611 2.06396 43.1006 2 44.6367C1.93604 46.1406 1.90405 47.6133 1.90405 49.0527C1.90405 50.1729 1.95203 51.4053 2.04797 52.749C2.14404 54.0615 2.30396 55.373 2.52795 56.6855C2.75195 57.9648 3.05603 59.2129 3.44006 60.4287C3.82397 61.6455 4.28796 62.7168 4.83203 63.6455C5.40796 64.5732 6.07996 65.3086 6.84802 65.8535C7.61597 66.4287 8.51196 66.7168 9.53601 66.7168C10.304 66.7168 11.0081 66.5254 11.6479 66.1406C12.288 65.7568 12.88 65.2129 13.424 64.5088C13.968 63.8369 14.448 63.0371 14.864 62.1094C15.312 61.1807 15.712 60.1729 16.064 59.085C15.328 57.0693 14.7841 54.9248 14.432 52.6533C14.08 50.3809 13.9041 48.2852 13.9041 46.3652C13.9041 44.957 13.952 43.5654 14.048 42.1895C14.176 40.8135 14.3521 39.5811 14.576 38.4932C14.8 37.4053 15.088 36.5254 15.4401 35.8535C15.792 35.1807 16.208 34.8447 16.688 34.8447C17.072 34.8447 17.408 35.085 17.696 35.5654C18.016 36.0449 18.272 36.7012 18.464 37.5332C18.688 38.3652 18.848 39.3574 18.944 40.5088C19.072 41.6289 19.136 42.8447 19.136 44.1572C19.136 46.2695 18.9921 48.4932 18.704 50.8291C18.416 53.1328 17.968 55.3887 17.36 57.5967C17.776 58.7168 18.256 59.7568 18.8 60.7168C19.344 61.6455 19.952 62.4609 20.624 63.165C21.328 63.8691 22.0961 64.4131 22.928 64.7969C23.792 65.2129 24.736 65.4209 25.76 65.4209C27.168 65.4209 28.3201 65.0693 29.2161 64.3652C30.1121 63.6934 30.816 62.7646 31.328 61.5811C31.84 60.3652 32.192 58.9727 32.384 57.4053C32.576 55.8047 32.672 54.0928 32.672 52.2695C32.672 50.6367 32.608 48.957 32.48 47.2295C32.384 45.501 32.272 43.7891 32.144 42.0928C32.016 40.3652 31.8881 38.7012 31.76 37.1006C31.6641 35.4688 31.616 33.9648 31.616 32.5889C31.616 31.5967 31.76 30.4453 32.048 29.1328C32.368 27.8213 32.7841 26.5889 33.296 25.4375C33.84 24.2529 34.448 23.2607 35.12 22.4609C35.824 21.6289 36.5601 21.2129 37.328 21.2129C37.552 21.2129 37.776 21.3252 38 21.5488C38.224 21.7412 38.3361 21.9326 38.3361 22.125Z" fill="rgb(0,0,0)" fill-rule="nonzero" />
	<path id="Форма 1" d="M53.3236 53.9971C53.3236 53.5166 53.2437 53.1328 53.0836 52.8447C52.9236 52.5254 52.6676 52.3652 52.3157 52.3652C51.7716 52.3652 51.3556 52.6367 51.0676 53.1807C50.7797 53.6934 50.6516 54.3486 50.6836 55.1494C50.7797 56.8447 51.0836 58.2695 51.5956 59.4209C52.1396 58.6855 52.5557 57.8535 52.8436 56.9248C53.1637 55.9971 53.3236 55.0215 53.3236 53.9971ZM66.2837 53.9492C66.0597 54.4287 65.8196 54.9248 65.5636 55.4375C65.3076 55.917 65.0197 56.3975 64.6996 56.877C63.0676 59.3086 61.4197 61.1172 59.7556 62.3008C58.0917 63.4854 56.5397 64.0771 55.0996 64.0771C53.2756 64.0771 51.8837 63.2129 50.9236 61.4854C49.8036 62.6055 48.5397 63.4531 47.1316 64.0293C45.7556 64.6055 44.3956 64.8926 43.0516 64.8926C42.2516 64.8926 41.4836 64.7812 40.7477 64.5566C40.0436 64.333 39.4357 63.9971 38.9236 63.5488C38.3796 63.0693 37.9476 62.4775 37.6277 61.7734C37.3076 61.0371 37.1476 60.1895 37.1476 59.2295C37.1476 58.0771 37.4197 56.9092 37.9636 55.7246C38.4756 54.5088 39.1957 53.4209 40.1237 52.4609C41.0836 51.4688 42.2036 50.6533 43.4836 50.0127C44.7637 49.373 46.1556 49.0527 47.6597 49.0527C48.8756 49.0527 49.8196 49.2295 50.4916 49.5811C51.1636 49.9014 51.4996 50.2051 51.4996 50.4932C51.4996 50.6211 51.4357 50.7168 51.3076 50.7812C51.1797 50.8447 51.0676 50.877 50.9717 50.877C50.9396 50.8447 50.9076 50.8291 50.8756 50.8291L50.8276 50.8291C50.4436 50.4775 50.0116 50.2051 49.5316 50.0127C49.0516 49.7891 48.3477 49.6768 47.4197 49.6768C46.1716 49.6768 45.0356 49.9492 44.0116 50.4932C43.0197 51.0049 42.1716 51.6934 41.4677 52.5566C40.7637 53.3887 40.2196 54.3174 39.8357 55.3408C39.4517 56.3652 39.2596 57.373 39.2596 58.3652C39.2596 60.2852 39.7076 61.6768 40.6036 62.541C41.4996 63.4053 42.6196 63.8369 43.9636 63.8369C45.0516 63.8369 46.1876 63.5654 47.3716 63.0215C48.5557 62.4775 49.6117 61.709 50.5397 60.7168C50.0276 59.5654 49.7716 58.0615 49.7716 56.2051C49.7716 54.9893 49.9956 53.9326 50.4436 53.0371C50.8916 52.1406 51.5316 51.6934 52.3636 51.6934C53.5156 51.6934 54.0917 52.3652 54.0917 53.709C54.0917 55.0527 53.8997 56.2695 53.5156 57.3574C53.1316 58.4131 52.6196 59.373 51.9796 60.2373C52.8756 61.9014 54.1237 62.7334 55.7236 62.7334C56.9396 62.7334 58.2356 62.2207 59.6117 61.1973C61.0197 60.1729 62.3956 58.6855 63.7396 56.7334C64.0597 56.2529 64.3477 55.7568 64.6036 55.2451C64.8596 54.7334 65.1156 54.2207 65.3716 53.709L66.2837 53.9492L66.2837 53.9492Z" fill="rgb(208.25,208.25,208.25)" fill-rule="nonzero" />
	<path id="Форма 1" d="M53.3236 53.9971C53.3236 53.5166 53.2437 53.1328 53.0836 52.8447C52.9236 52.5254 52.6676 52.3652 52.3157 52.3652C51.7716 52.3652 51.3556 52.6367 51.0676 53.1807C50.7797 53.6934 50.6516 54.3486 50.6836 55.1494C50.7797 56.8447 51.0836 58.2695 51.5956 59.4209C52.1396 58.6855 52.5557 57.8535 52.8436 56.9248C53.1637 55.9971 53.3236 55.0215 53.3236 53.9971ZM66.2837 53.9492C66.0597 54.4287 65.8196 54.9248 65.5636 55.4375C65.3076 55.917 65.0197 56.3975 64.6996 56.877C63.0676 59.3086 61.4197 61.1172 59.7556 62.3008C58.0917 63.4854 56.5397 64.0771 55.0996 64.0771C53.2756 64.0771 51.8837 63.2129 50.9236 61.4854C49.8036 62.6055 48.5397 63.4531 47.1316 64.0293C45.7556 64.6055 44.3956 64.8926 43.0516 64.8926C42.2516 64.8926 41.4836 64.7812 40.7477 64.5566C40.0436 64.333 39.4357 63.9971 38.9236 63.5488C38.3796 63.0693 37.9476 62.4775 37.6277 61.7734C37.3076 61.0371 37.1476 60.1895 37.1476 59.2295C37.1476 58.0771 37.4197 56.9092 37.9636 55.7246C38.4756 54.5088 39.1957 53.4209 40.1237 52.4609C41.0836 51.4688 42.2036 50.6533 43.4836 50.0127C44.7637 49.373 46.1556 49.0527 47.6597 49.0527C48.8756 49.0527 49.8196 49.2295 50.4916 49.5811C51.1636 49.9014 51.4996 50.2051 51.4996 50.4932C51.4996 50.6211 51.4357 50.7168 51.3076 50.7812C51.1797 50.8447 51.0676 50.877 50.9717 50.877C50.9396 50.8447 50.9076 50.8291 50.8756 50.8291L50.8276 50.8291C50.4436 50.4775 50.0116 50.2051 49.5316 50.0127C49.0516 49.7891 48.3477 49.6768 47.4197 49.6768C46.1716 49.6768 45.0356 49.9492 44.0116 50.4932C43.0197 51.0049 42.1716 51.6934 41.4677 52.5566C40.7637 53.3887 40.2196 54.3174 39.8357 55.3408C39.4517 56.3652 39.2596 57.373 39.2596 58.3652C39.2596 60.2852 39.7076 61.6768 40.6036 62.541C41.4996 63.4053 42.6196 63.8369 43.9636 63.8369C45.0516 63.8369 46.1876 63.5654 47.3716 63.0215C48.5557 62.4775 49.6117 61.709 50.5397 60.7168C50.0276 59.5654 49.7716 58.0615 49.7716 56.2051C49.7716 54.9893 49.9956 53.9326 50.4436 53.0371C50.8916 52.1406 51.5316 51.6934 52.3636 51.6934C53.5156 51.6934 54.0917 52.3652 54.0917 53.709C54.0917 55.0527 53.8997 56.2695 53.5156 57.3574C53.1316 58.4131 52.6196 59.373 51.9796 60.2373C52.8756 61.9014 54.1237 62.7334 55.7236 62.7334C56.9396 62.7334 58.2356 62.2207 59.6117 61.1973C61.0197 60.1729 62.3956 58.6855 63.7396 56.7334C64.0597 56.2529 64.3477 55.7568 64.6036 55.2451C64.8596 54.7334 65.1156 54.2207 65.3716 53.709L66.2837 53.9492L66.2837 53.9492Z" fill="rgb(0,0,0)" fill-rule="nonzero" />
	<path id="Форма 1" d="M72.9508 32.4932C72.9508 30.6689 72.6467 29.2129 72.0388 28.125C71.4628 27.0049 70.4868 26.4453 69.1107 26.4453C68.6307 26.4453 68.1827 26.6055 67.7667 26.9248C67.3828 27.2129 67.0468 27.6133 66.7588 28.125C66.4707 28.6367 66.2467 29.2295 66.0868 29.9014C65.9268 30.5732 65.8468 31.293 65.8468 32.0615C65.8468 34.1729 65.8628 36.0928 65.8948 37.8213C65.9268 39.5488 65.9587 41.1807 65.9907 42.7168C66.0548 44.2529 66.1188 45.7412 66.1827 47.1807C66.2467 48.6211 66.3108 50.0928 66.3748 51.5967C67.3027 50.3486 68.1667 48.9248 68.9668 47.3252C69.7667 45.6934 70.4547 44.0293 71.0308 42.333C71.6388 40.6055 72.1028 38.8926 72.4227 37.1973C72.7748 35.501 72.9508 33.9326 72.9508 32.4932ZM90.3268 53.9492C90.1028 54.4287 89.8628 54.9248 89.6068 55.4375C89.3828 55.9492 89.0947 56.4287 88.7428 56.877C86.9828 59.373 84.9828 61.3408 82.7428 62.7812C80.5028 64.1895 78.2788 64.8926 76.0708 64.8926C74.6947 64.8926 73.3828 64.5732 72.1348 63.9326C70.8867 63.3252 69.7827 62.333 68.8228 60.957C68.6947 60.7969 68.6307 60.6533 68.6307 60.5254C68.6307 60.2373 68.8228 60.0928 69.2068 60.0928C69.2388 60.0928 69.3507 60.125 69.5427 60.1895C69.7987 60.1895 70.0868 60.2852 70.4067 60.4775C70.7588 60.6367 71.2548 60.7168 71.8948 60.7168C72.8867 60.7168 73.8148 60.541 74.6787 60.1895C75.5427 59.8369 76.2788 59.3887 76.8867 58.8447C77.5267 58.2695 78.0227 57.6289 78.3748 56.9248C78.7268 56.1895 78.9027 55.4375 78.9027 54.6689C78.9027 53.709 78.6467 52.877 78.1348 52.1729C77.6548 51.4688 76.8228 51.1172 75.6388 51.1172C74.4227 51.1172 73.3027 51.5488 72.2788 52.4131C71.2548 53.2451 70.3268 54.2695 69.4948 55.4854C68.6947 56.6689 68.0067 57.9326 67.4308 59.2773C66.8547 60.5889 66.4227 61.7412 66.1348 62.7334C65.9747 63.2773 65.8308 63.6133 65.7028 63.7412C65.5747 63.8691 65.4308 63.9326 65.2708 63.9326C64.9187 63.9326 64.7588 63.5967 64.7908 62.9248C64.7908 62.6367 64.8068 62.2852 64.8387 61.8691C64.8707 61.4531 64.9027 61.0049 64.9348 60.5254C64.9348 60.0449 64.9508 59.5654 64.9828 59.085C65.0148 58.5732 65.0308 58.1094 65.0308 57.6934C65.0308 56.2529 64.9988 54.6055 64.9348 52.749C64.8707 50.8613 64.7908 48.9248 64.6947 46.9414C64.5988 44.9248 64.5188 42.9248 64.4547 40.9414C64.3907 38.957 64.3588 37.1328 64.3588 35.4688C64.3588 34.1572 64.4547 32.8926 64.6467 31.6768C64.8387 30.4287 65.1427 29.3408 65.5587 28.4131C65.9747 27.4531 66.5028 26.7012 67.1427 26.1572C67.7827 25.5811 68.5348 25.293 69.3988 25.293C70.2948 25.293 71.0468 25.4531 71.6548 25.7734C72.2948 26.0615 72.8068 26.4932 73.1908 27.0693C73.5747 27.6133 73.8468 28.2852 74.0067 29.085C74.1987 29.8535 74.2948 30.7012 74.2948 31.6289C74.2948 33.2295 74.0708 34.9893 73.6228 36.9092C73.1748 38.7969 72.5828 40.7012 71.8468 42.6211C71.1107 44.541 70.2628 46.3975 69.3027 48.1895C68.3748 49.9492 67.4148 51.4854 66.4227 52.7969C66.4868 53.7568 66.5188 54.749 66.5188 55.7734C66.5508 56.7969 66.5988 57.8848 66.6627 59.0371C67.4628 57.3086 68.3428 55.8213 69.3027 54.5732C69.7188 54.0293 70.1827 53.501 70.6947 52.9893C71.2388 52.4453 71.7987 51.9648 72.3748 51.5488C72.9828 51.1328 73.6228 50.7969 74.2948 50.541C74.9988 50.2852 75.7347 50.1572 76.5028 50.1572C77.7188 50.1572 78.7748 50.4609 79.6708 51.0693C80.5668 51.6768 81.0148 52.6533 81.0148 53.9971C81.0148 55.2773 80.6947 56.3652 80.0548 57.2607C79.4468 58.1572 78.6787 58.9092 77.7507 59.5166C76.8228 60.0928 75.8308 60.5254 74.7748 60.8135C73.7188 61.1006 72.7588 61.2773 71.8948 61.3408C71.8308 61.3408 71.7987 61.3574 71.7987 61.3887C71.7987 61.4531 71.8468 61.5488 71.9427 61.6768C72.5828 62.4131 73.3027 62.9414 74.1028 63.2607C74.9027 63.5811 75.7347 63.7412 76.5988 63.7412C77.6548 63.7412 78.7268 63.5488 79.8148 63.165C80.9027 62.749 81.9427 62.2207 82.9348 61.5811C83.9268 60.9092 84.8387 60.1572 85.6708 59.3252C86.5348 58.4609 87.2388 57.5967 87.7827 56.7334C88.1028 56.2529 88.3907 55.7568 88.6467 55.2451C88.9027 54.7334 89.1588 54.2207 89.4148 53.709L90.3268 53.9492L90.3268 53.9492Z" fill="rgb(208.25,208.25,208.25)" fill-rule="nonzero" />
	<path id="Форма 1" d="M72.9508 32.4932C72.9508 30.6689 72.6467 29.2129 72.0388 28.125C71.4628 27.0049 70.4868 26.4453 69.1107 26.4453C68.6307 26.4453 68.1827 26.6055 67.7667 26.9248C67.3828 27.2129 67.0468 27.6133 66.7588 28.125C66.4707 28.6367 66.2467 29.2295 66.0868 29.9014C65.9268 30.5732 65.8468 31.293 65.8468 32.0615C65.8468 34.1729 65.8628 36.0928 65.8948 37.8213C65.9268 39.5488 65.9587 41.1807 65.9907 42.7168C66.0548 44.2529 66.1188 45.7412 66.1827 47.1807C66.2467 48.6211 66.3108 50.0928 66.3748 51.5967C67.3027 50.3486 68.1667 48.9248 68.9668 47.3252C69.7667 45.6934 70.4547 44.0293 71.0308 42.333C71.6388 40.6055 72.1028 38.8926 72.4227 37.1973C72.7748 35.501 72.9508 33.9326 72.9508 32.4932ZM90.3268 53.9492C90.1028 54.4287 89.8628 54.9248 89.6068 55.4375C89.3828 55.9492 89.0947 56.4287 88.7428 56.877C86.9828 59.373 84.9828 61.3408 82.7428 62.7812C80.5028 64.1895 78.2788 64.8926 76.0708 64.8926C74.6947 64.8926 73.3828 64.5732 72.1348 63.9326C70.8867 63.3252 69.7827 62.333 68.8228 60.957C68.6947 60.7969 68.6307 60.6533 68.6307 60.5254C68.6307 60.2373 68.8228 60.0928 69.2068 60.0928C69.2388 60.0928 69.3507 60.125 69.5427 60.1895C69.7987 60.1895 70.0868 60.2852 70.4067 60.4775C70.7588 60.6367 71.2548 60.7168 71.8948 60.7168C72.8867 60.7168 73.8148 60.541 74.6787 60.1895C75.5427 59.8369 76.2788 59.3887 76.8867 58.8447C77.5267 58.2695 78.0227 57.6289 78.3748 56.9248C78.7268 56.1895 78.9027 55.4375 78.9027 54.6689C78.9027 53.709 78.6467 52.877 78.1348 52.1729C77.6548 51.4688 76.8228 51.1172 75.6388 51.1172C74.4227 51.1172 73.3027 51.5488 72.2788 52.4131C71.2548 53.2451 70.3268 54.2695 69.4948 55.4854C68.6947 56.6689 68.0067 57.9326 67.4308 59.2773C66.8547 60.5889 66.4227 61.7412 66.1348 62.7334C65.9747 63.2773 65.8308 63.6133 65.7028 63.7412C65.5747 63.8691 65.4308 63.9326 65.2708 63.9326C64.9187 63.9326 64.7588 63.5967 64.7908 62.9248C64.7908 62.6367 64.8068 62.2852 64.8387 61.8691C64.8707 61.4531 64.9027 61.0049 64.9348 60.5254C64.9348 60.0449 64.9508 59.5654 64.9828 59.085C65.0148 58.5732 65.0308 58.1094 65.0308 57.6934C65.0308 56.2529 64.9988 54.6055 64.9348 52.749C64.8707 50.8613 64.7908 48.9248 64.6947 46.9414C64.5988 44.9248 64.5188 42.9248 64.4547 40.9414C64.3907 38.957 64.3588 37.1328 64.3588 35.4688C64.3588 34.1572 64.4547 32.8926 64.6467 31.6768C64.8387 30.4287 65.1427 29.3408 65.5587 28.4131C65.9747 27.4531 66.5028 26.7012 67.1427 26.1572C67.7827 25.5811 68.5348 25.293 69.3988 25.293C70.2948 25.293 71.0468 25.4531 71.6548 25.7734C72.2948 26.0615 72.8068 26.4932 73.1908 27.0693C73.5747 27.6133 73.8468 28.2852 74.0067 29.085C74.1987 29.8535 74.2948 30.7012 74.2948 31.6289C74.2948 33.2295 74.0708 34.9893 73.6228 36.9092C73.1748 38.7969 72.5828 40.7012 71.8468 42.6211C71.1107 44.541 70.2628 46.3975 69.3027 48.1895C68.3748 49.9492 67.4148 51.4854 66.4227 52.7969C66.4868 53.7568 66.5188 54.749 66.5188 55.7734C66.5508 56.7969 66.5988 57.8848 66.6627 59.0371C67.4628 57.3086 68.3428 55.8213 69.3027 54.5732C69.7188 54.0293 70.1827 53.501 70.6947 52.9893C71.2388 52.4453 71.7987 51.9648 72.3748 51.5488C72.9828 51.1328 73.6228 50.7969 74.2948 50.541C74.9988 50.2852 75.7347 50.1572 76.5028 50.1572C77.7188 50.1572 78.7748 50.4609 79.6708 51.0693C80.5668 51.6768 81.0148 52.6533 81.0148 53.9971C81.0148 55.2773 80.6947 56.3652 80.0548 57.2607C79.4468 58.1572 78.6787 58.9092 77.7507 59.5166C76.8228 60.0928 75.8308 60.5254 74.7748 60.8135C73.7188 61.1006 72.7588 61.2773 71.8948 61.3408C71.8308 61.3408 71.7987 61.3574 71.7987 61.3887C71.7987 61.4531 71.8468 61.5488 71.9427 61.6768C72.5828 62.4131 73.3027 62.9414 74.1028 63.2607C74.9027 63.5811 75.7347 63.7412 76.5988 63.7412C77.6548 63.7412 78.7268 63.5488 79.8148 63.165C80.9027 62.749 81.9427 62.2207 82.9348 61.5811C83.9268 60.9092 84.8387 60.1572 85.6708 59.3252C86.5348 58.4609 87.2388 57.5967 87.7827 56.7334C88.1028 56.2529 88.3907 55.7568 88.6467 55.2451C88.9027 54.7334 89.1588 54.2207 89.4148 53.709L90.3268 53.9492L90.3268 53.9492Z" fill="rgb(0,0,0)" fill-rule="nonzero" />
	<path id="Форма 1" d="M97.0936 50.9727C97.0936 50.1094 96.8696 49.4053 96.4216 48.8613C96.0056 48.2852 95.3176 47.9971 94.3577 47.9971C93.8456 47.9971 93.3816 48.1572 92.9656 48.4775C92.5497 48.7969 92.1976 49.2295 91.9097 49.7734C91.6216 50.2852 91.3976 50.8926 91.2377 51.5967C91.0776 52.3008 90.9977 53.0371 90.9977 53.8047C90.9977 55.0215 91.1256 56.1094 91.3816 57.0693C91.6697 57.9971 92.0696 58.8135 92.5817 59.5166C93.2537 58.9727 93.8617 58.3486 94.4056 57.6455C94.9496 56.9414 95.4136 56.2051 95.7976 55.4375C96.2136 54.6689 96.5337 53.9014 96.7577 53.1328C96.9817 52.3652 97.0936 51.6455 97.0936 50.9727ZM109.238 53.9492C109.014 54.4287 108.774 54.9248 108.518 55.4375C108.294 55.917 108.006 56.3975 107.654 56.877C106.086 59.1172 104.294 60.8135 102.278 61.9648C100.294 63.085 98.3896 63.6455 96.5657 63.6455C95.5416 63.6455 94.5817 63.4688 93.6857 63.1172C92.8217 62.7646 92.0696 62.2373 91.4297 61.5332C90.7897 60.8291 90.2776 59.9492 89.8937 58.8926C89.5096 57.8369 89.3176 56.5889 89.3176 55.1494C89.3176 54.1895 89.4617 53.2295 89.7496 52.2695C90.0376 51.3086 90.4216 50.4453 90.9016 49.6768C91.4136 48.9092 91.9896 48.2852 92.6296 47.8047C93.3016 47.3252 94.0056 47.085 94.7416 47.085C95.9257 47.085 96.7897 47.4375 97.3336 48.1406C97.8777 48.8135 98.1497 49.6768 98.1497 50.7334C98.1497 52.1729 97.7017 53.7412 96.8057 55.4375C95.9417 57.1006 94.6936 58.6533 93.0616 60.0928C94.2776 61.4688 95.8456 62.1572 97.7656 62.1572C99.2057 62.1572 100.71 61.7246 102.278 60.8613C103.846 59.9648 105.318 58.5889 106.694 56.7334C107.046 56.2852 107.334 55.8047 107.558 55.293C107.814 54.749 108.07 54.2207 108.326 53.709L109.238 53.9492L109.238 53.9492Z" fill="rgb(208.25,208.25,208.25)" fill-rule="nonzero" />
	<path id="Форма 1" d="M97.0936 50.9727C97.0936 50.1094 96.8696 49.4053 96.4216 48.8613C96.0056 48.2852 95.3176 47.9971 94.3577 47.9971C93.8456 47.9971 93.3816 48.1572 92.9656 48.4775C92.5497 48.7969 92.1976 49.2295 91.9097 49.7734C91.6216 50.2852 91.3976 50.8926 91.2377 51.5967C91.0776 52.3008 90.9977 53.0371 90.9977 53.8047C90.9977 55.0215 91.1256 56.1094 91.3816 57.0693C91.6697 57.9971 92.0696 58.8135 92.5817 59.5166C93.2537 58.9727 93.8617 58.3486 94.4056 57.6455C94.9496 56.9414 95.4136 56.2051 95.7976 55.4375C96.2136 54.6689 96.5337 53.9014 96.7577 53.1328C96.9817 52.3652 97.0936 51.6455 97.0936 50.9727ZM109.238 53.9492C109.014 54.4287 108.774 54.9248 108.518 55.4375C108.294 55.917 108.006 56.3975 107.654 56.877C106.086 59.1172 104.294 60.8135 102.278 61.9648C100.294 63.085 98.3896 63.6455 96.5657 63.6455C95.5416 63.6455 94.5817 63.4688 93.6857 63.1172C92.8217 62.7646 92.0696 62.2373 91.4297 61.5332C90.7897 60.8291 90.2776 59.9492 89.8937 58.8926C89.5096 57.8369 89.3176 56.5889 89.3176 55.1494C89.3176 54.1895 89.4617 53.2295 89.7496 52.2695C90.0376 51.3086 90.4216 50.4453 90.9016 49.6768C91.4136 48.9092 91.9896 48.2852 92.6296 47.8047C93.3016 47.3252 94.0056 47.085 94.7416 47.085C95.9257 47.085 96.7897 47.4375 97.3336 48.1406C97.8777 48.8135 98.1497 49.6768 98.1497 50.7334C98.1497 52.1729 97.7017 53.7412 96.8057 55.4375C95.9417 57.1006 94.6936 58.6533 93.0616 60.0928C94.2776 61.4688 95.8456 62.1572 97.7656 62.1572C99.2057 62.1572 100.71 61.7246 102.278 60.8613C103.846 59.9648 105.318 58.5889 106.694 56.7334C107.046 56.2852 107.334 55.8047 107.558 55.293C107.814 54.749 108.07 54.2207 108.326 53.709L109.238 53.9492L109.238 53.9492Z" fill="rgb(0,0,0)" fill-rule="nonzero" />
	<path id="Форма 1" d="M150.823 41.8535C149.639 41.8535 148.503 41.9814 147.415 42.2373C146.359 42.4932 145.415 42.7969 144.583 43.1494C143.783 43.501 143.127 43.8691 142.615 44.2529C142.135 44.6367 141.895 44.9727 141.895 45.2607C141.895 45.6455 142.343 45.8369 143.239 45.8369C144.775 45.8369 146.231 45.4688 147.607 44.7334C149.015 43.9971 150.279 43.0371 151.399 41.8535L150.823 41.8535L150.823 41.8535ZM164.791 49.0527C164.791 50.6211 164.343 52.3174 163.447 54.1406C162.583 55.9648 161.383 57.7734 159.847 59.5654C158.311 61.3574 156.487 63.085 154.375 64.749C152.263 66.4131 149.991 67.8848 147.559 69.165C145.127 70.4453 142.567 71.4531 139.879 72.1895C137.191 72.957 134.503 73.3408 131.815 73.3408C131.367 73.3408 130.871 73.3252 130.327 73.293C129.815 73.2607 129.335 73.1807 128.887 73.0527C128.439 72.957 128.055 72.7812 127.735 72.5254C127.415 72.3008 127.255 71.9814 127.255 71.5654C127.255 70.9893 127.543 70.4287 128.119 69.8848C128.695 69.373 129.431 68.8926 130.327 68.4453C131.223 67.9971 132.199 67.5967 133.255 67.2451C134.311 66.8926 135.319 66.5889 136.279 66.333C137.271 66.0771 138.135 65.8691 138.871 65.709C139.607 65.5811 140.103 65.5166 140.359 65.5166C140.551 65.5166 140.695 65.5654 140.791 65.6611C140.887 65.7568 140.935 65.8535 140.935 65.9492C140.935 66.1094 140.855 66.1895 140.695 66.1895L140.071 66.1895C139.239 66.1895 138.183 66.3486 136.903 66.6689C135.623 66.9893 134.375 67.3887 133.159 67.8691C131.943 68.3486 130.903 68.877 130.039 69.4531C129.175 70.0615 128.743 70.6211 128.743 71.1328C128.743 71.4854 128.855 71.7568 129.079 71.9492C129.335 72.1729 129.639 72.3486 129.991 72.4775C130.343 72.6055 130.711 72.6855 131.095 72.7168C131.479 72.7812 131.815 72.8135 132.103 72.8135C134.375 72.8135 136.695 72.4287 139.063 71.6611C141.463 70.8926 143.783 69.8691 146.023 68.5889C148.295 67.3408 150.423 65.8848 152.407 64.2207C154.423 62.5889 156.183 60.8926 157.687 59.1328C159.191 57.3408 160.375 55.5654 161.239 53.8047C162.103 52.0127 162.535 50.3486 162.535 48.8135C162.535 46.9248 161.751 45.3574 160.183 44.1094C158.647 42.8291 156.103 42.0928 152.551 41.9014C151.111 43.2451 149.527 44.333 147.799 45.165C146.103 45.9971 144.375 46.4131 142.615 46.4131C141.367 46.4131 140.743 46.1094 140.743 45.501C140.743 45.1172 140.999 44.6855 141.511 44.2051C142.055 43.6934 142.791 43.2129 143.719 42.7646C144.679 42.3174 145.815 41.9492 147.127 41.6611C148.439 41.3408 149.879 41.1807 151.447 41.1807L152.023 41.1807C153.079 39.9326 153.927 38.5732 154.567 37.1006C155.207 35.5967 155.527 34.125 155.527 32.6855C155.527 31.7246 155.351 30.8135 154.999 29.9492C154.679 29.0527 154.135 28.2852 153.367 27.6455C152.631 27.0049 151.655 26.4932 150.439 26.1094C149.255 25.7246 147.815 25.5332 146.119 25.5332C144.967 25.5332 143.367 25.6934 141.319 26.0127C139.303 26.333 137.111 26.8291 134.743 27.501C132.407 28.1406 130.023 28.957 127.591 29.9492C125.159 30.9414 122.951 32.0928 120.967 33.4053C118.983 34.7168 117.367 36.2051 116.119 37.8691C114.871 39.5332 114.247 41.373 114.247 43.3887C114.247 43.6455 114.199 43.8691 114.103 44.0615C114.007 44.2207 113.911 44.3008 113.815 44.3008C113.687 44.3008 113.591 44.1729 113.527 43.917C113.431 43.6289 113.383 43.165 113.383 42.5254C113.671 40.4453 114.519 38.5566 115.927 36.8613C117.335 35.165 119.079 33.6611 121.159 32.3486C123.207 31.0049 125.463 29.8535 127.927 28.8926C130.391 27.9326 132.823 27.1494 135.223 26.541C137.655 25.9014 139.911 25.4375 141.991 25.1494C144.103 24.8291 145.831 24.6689 147.175 24.6689C149.127 24.6689 150.775 24.8613 152.119 25.2451C153.495 25.5967 154.615 26.0928 155.479 26.7334C156.343 27.3408 156.967 28.0771 157.351 28.9414C157.735 29.8047 157.927 30.7168 157.927 31.6768C157.927 33.2451 157.495 34.877 156.631 36.5732C155.799 38.2373 154.663 39.7891 153.223 41.2295C155.271 41.3252 157.031 41.5967 158.503 42.0449C159.975 42.4609 161.175 43.0215 162.103 43.7246C163.031 44.3975 163.703 45.1973 164.119 46.125C164.567 47.0215 164.791 47.9971 164.791 49.0527ZM139.351 61.6768C139.351 62.125 139.319 62.4453 139.255 62.6367C139.191 62.8291 139.015 62.9248 138.727 62.9248C138.087 62.9893 137.767 62.3486 137.767 61.0049C137.735 56.5889 137.687 52.5566 137.623 48.9092C137.591 45.2607 137.543 42.1094 137.479 39.4531C137.447 36.7646 137.415 34.6367 137.383 33.0693C137.351 31.501 137.335 30.6055 137.335 30.3809C137.335 30.125 137.415 29.9492 137.575 29.8535C137.735 29.7568 137.927 29.6768 138.151 29.6133C138.407 29.6133 138.599 29.6934 138.727 29.8535C138.887 30.0127 138.967 30.2051 138.967 30.4287C138.967 32.9893 138.983 35.6289 139.015 38.3486C139.047 41.0371 139.079 43.7246 139.111 46.4131C139.175 49.1006 139.223 51.7412 139.255 54.333C139.319 56.9248 139.351 59.373 139.351 61.6768Z" fill="rgb(208.25,208.25,208.25)" fill-rule="nonzero" />
	<path id="Форма 1" d="M150.823 41.8535C149.639 41.8535 148.503 41.9814 147.415 42.2373C146.359 42.4932 145.415 42.7969 144.583 43.1494C143.783 43.501 143.127 43.8691 142.615 44.2529C142.135 44.6367 141.895 44.9727 141.895 45.2607C141.895 45.6455 142.343 45.8369 143.239 45.8369C144.775 45.8369 146.231 45.4688 147.607 44.7334C149.015 43.9971 150.279 43.0371 151.399 41.8535L150.823 41.8535L150.823 41.8535ZM164.791 49.0527C164.791 50.6211 164.343 52.3174 163.447 54.1406C162.583 55.9648 161.383 57.7734 159.847 59.5654C158.311 61.3574 156.487 63.085 154.375 64.749C152.263 66.4131 149.991 67.8848 147.559 69.165C145.127 70.4453 142.567 71.4531 139.879 72.1895C137.191 72.957 134.503 73.3408 131.815 73.3408C131.367 73.3408 130.871 73.3252 130.327 73.293C129.815 73.2607 129.335 73.1807 128.887 73.0527C128.439 72.957 128.055 72.7812 127.735 72.5254C127.415 72.3008 127.255 71.9814 127.255 71.5654C127.255 70.9893 127.543 70.4287 128.119 69.8848C128.695 69.373 129.431 68.8926 130.327 68.4453C131.223 67.9971 132.199 67.5967 133.255 67.2451C134.311 66.8926 135.319 66.5889 136.279 66.333C137.271 66.0771 138.135 65.8691 138.871 65.709C139.607 65.5811 140.103 65.5166 140.359 65.5166C140.551 65.5166 140.695 65.5654 140.791 65.6611C140.887 65.7568 140.935 65.8535 140.935 65.9492C140.935 66.1094 140.855 66.1895 140.695 66.1895L140.071 66.1895C139.239 66.1895 138.183 66.3486 136.903 66.6689C135.623 66.9893 134.375 67.3887 133.159 67.8691C131.943 68.3486 130.903 68.877 130.039 69.4531C129.175 70.0615 128.743 70.6211 128.743 71.1328C128.743 71.4854 128.855 71.7568 129.079 71.9492C129.335 72.1729 129.639 72.3486 129.991 72.4775C130.343 72.6055 130.711 72.6855 131.095 72.7168C131.479 72.7812 131.815 72.8135 132.103 72.8135C134.375 72.8135 136.695 72.4287 139.063 71.6611C141.463 70.8926 143.783 69.8691 146.023 68.5889C148.295 67.3408 150.423 65.8848 152.407 64.2207C154.423 62.5889 156.183 60.8926 157.687 59.1328C159.191 57.3408 160.375 55.5654 161.239 53.8047C162.103 52.0127 162.535 50.3486 162.535 48.8135C162.535 46.9248 161.751 45.3574 160.183 44.1094C158.647 42.8291 156.103 42.0928 152.551 41.9014C151.111 43.2451 149.527 44.333 147.799 45.165C146.103 45.9971 144.375 46.4131 142.615 46.4131C141.367 46.4131 140.743 46.1094 140.743 45.501C140.743 45.1172 140.999 44.6855 141.511 44.2051C142.055 43.6934 142.791 43.2129 143.719 42.7646C144.679 42.3174 145.815 41.9492 147.127 41.6611C148.439 41.3408 149.879 41.1807 151.447 41.1807L152.023 41.1807C153.079 39.9326 153.927 38.5732 154.567 37.1006C155.207 35.5967 155.527 34.125 155.527 32.6855C155.527 31.7246 155.351 30.8135 154.999 29.9492C154.679 29.0527 154.135 28.2852 153.367 27.6455C152.631 27.0049 151.655 26.4932 150.439 26.1094C149.255 25.7246 147.815 25.5332 146.119 25.5332C144.967 25.5332 143.367 25.6934 141.319 26.0127C139.303 26.333 137.111 26.8291 134.743 27.501C132.407 28.1406 130.023 28.957 127.591 29.9492C125.159 30.9414 122.951 32.0928 120.967 33.4053C118.983 34.7168 117.367 36.2051 116.119 37.8691C114.871 39.5332 114.247 41.373 114.247 43.3887C114.247 43.6455 114.199 43.8691 114.103 44.0615C114.007 44.2207 113.911 44.3008 113.815 44.3008C113.687 44.3008 113.591 44.1729 113.527 43.917C113.431 43.6289 113.383 43.165 113.383 42.5254C113.671 40.4453 114.519 38.5566 115.927 36.8613C117.335 35.165 119.079 33.6611 121.159 32.3486C123.207 31.0049 125.463 29.8535 127.927 28.8926C130.391 27.9326 132.823 27.1494 135.223 26.541C137.655 25.9014 139.911 25.4375 141.991 25.1494C144.103 24.8291 145.831 24.6689 147.175 24.6689C149.127 24.6689 150.775 24.8613 152.119 25.2451C153.495 25.5967 154.615 26.0928 155.479 26.7334C156.343 27.3408 156.967 28.0771 157.351 28.9414C157.735 29.8047 157.927 30.7168 157.927 31.6768C157.927 33.2451 157.495 34.877 156.631 36.5732C155.799 38.2373 154.663 39.7891 153.223 41.2295C155.271 41.3252 157.031 41.5967 158.503 42.0449C159.975 42.4609 161.175 43.0215 162.103 43.7246C163.031 44.3975 163.703 45.1973 164.119 46.125C164.567 47.0215 164.791 47.9971 164.791 49.0527ZM139.351 61.6768C139.351 62.125 139.319 62.4453 139.255 62.6367C139.191 62.8291 139.015 62.9248 138.727 62.9248C138.087 62.9893 137.767 62.3486 137.767 61.0049C137.735 56.5889 137.687 52.5566 137.623 48.9092C137.591 45.2607 137.543 42.1094 137.479 39.4531C137.447 36.7646 137.415 34.6367 137.383 33.0693C137.351 31.501 137.335 30.6055 137.335 30.3809C137.335 30.125 137.415 29.9492 137.575 29.8535C137.735 29.7568 137.927 29.6768 138.151 29.6133C138.407 29.6133 138.599 29.6934 138.727 29.8535C138.887 30.0127 138.967 30.2051 138.967 30.4287C138.967 32.9893 138.983 35.6289 139.015 38.3486C139.047 41.0371 139.079 43.7246 139.111 46.4131C139.175 49.1006 139.223 51.7412 139.255 54.333C139.319 56.9248 139.351 59.373 139.351 61.6768Z" fill="rgb(0,0,0)" fill-rule="nonzero" />
	<path id="Форма 1" d="M183.449 53.9971C183.449 53.5166 183.369 53.1328 183.209 52.8447C183.049 52.5254 182.793 52.3652 182.441 52.3652C181.897 52.3652 181.481 52.6367 181.193 53.1807C180.905 53.6934 180.777 54.3486 180.809 55.1494C180.905 56.8447 181.209 58.2695 181.721 59.4209C182.265 58.6855 182.681 57.8535 182.969 56.9248C183.289 55.9971 183.449 55.0215 183.449 53.9971ZM196.409 53.9492C196.185 54.4287 195.945 54.9248 195.689 55.4375C195.433 55.917 195.145 56.3975 194.825 56.877C193.193 59.3086 191.545 61.1172 189.881 62.3008C188.217 63.4854 186.665 64.0771 185.225 64.0771C183.401 64.0771 182.009 63.2129 181.049 61.4854C179.929 62.6055 178.665 63.4531 177.257 64.0293C175.881 64.6055 174.521 64.8926 173.177 64.8926C172.377 64.8926 171.609 64.7812 170.873 64.5566C170.169 64.333 169.561 63.9971 169.049 63.5488C168.505 63.0693 168.073 62.4775 167.753 61.7734C167.433 61.0371 167.273 60.1895 167.273 59.2295C167.273 58.0771 167.545 56.9092 168.089 55.7246C168.601 54.5088 169.321 53.4209 170.249 52.4609C171.209 51.4688 172.329 50.6533 173.609 50.0127C174.889 49.373 176.281 49.0527 177.785 49.0527C179.001 49.0527 179.945 49.2295 180.617 49.5811C181.289 49.9014 181.625 50.2051 181.625 50.4932C181.625 50.6211 181.561 50.7168 181.433 50.7812C181.305 50.8447 181.193 50.877 181.097 50.877C181.065 50.8447 181.033 50.8291 181.001 50.8291L180.953 50.8291C180.569 50.4775 180.137 50.2051 179.657 50.0127C179.177 49.7891 178.473 49.6768 177.545 49.6768C176.297 49.6768 175.161 49.9492 174.137 50.4932C173.145 51.0049 172.297 51.6934 171.593 52.5566C170.889 53.3887 170.345 54.3174 169.961 55.3408C169.577 56.3652 169.385 57.373 169.385 58.3652C169.385 60.2852 169.833 61.6768 170.729 62.541C171.625 63.4053 172.745 63.8369 174.089 63.8369C175.177 63.8369 176.313 63.5654 177.497 63.0215C178.681 62.4775 179.737 61.709 180.665 60.7168C180.153 59.5654 179.897 58.0615 179.897 56.2051C179.897 54.9893 180.121 53.9326 180.569 53.0371C181.017 52.1406 181.657 51.6934 182.489 51.6934C183.641 51.6934 184.217 52.3652 184.217 53.709C184.217 55.0527 184.025 56.2695 183.641 57.3574C183.257 58.4131 182.745 59.373 182.105 60.2373C183.001 61.9014 184.249 62.7334 185.849 62.7334C187.065 62.7334 188.361 62.2207 189.737 61.1973C191.145 60.1729 192.521 58.6855 193.865 56.7334C194.185 56.2529 194.473 55.7568 194.729 55.2451C194.985 54.7334 195.241 54.2207 195.497 53.709L196.409 53.9492L196.409 53.9492Z" fill="rgb(208.25,208.25,208.25)" fill-rule="nonzero" />
	<path id="Форма 1" d="M183.449 53.9971C183.449 53.5166 183.369 53.1328 183.209 52.8447C183.049 52.5254 182.793 52.3652 182.441 52.3652C181.897 52.3652 181.481 52.6367 181.193 53.1807C180.905 53.6934 180.777 54.3486 180.809 55.1494C180.905 56.8447 181.209 58.2695 181.721 59.4209C182.265 58.6855 182.681 57.8535 182.969 56.9248C183.289 55.9971 183.449 55.0215 183.449 53.9971ZM196.409 53.9492C196.185 54.4287 195.945 54.9248 195.689 55.4375C195.433 55.917 195.145 56.3975 194.825 56.877C193.193 59.3086 191.545 61.1172 189.881 62.3008C188.217 63.4854 186.665 64.0771 185.225 64.0771C183.401 64.0771 182.009 63.2129 181.049 61.4854C179.929 62.6055 178.665 63.4531 177.257 64.0293C175.881 64.6055 174.521 64.8926 173.177 64.8926C172.377 64.8926 171.609 64.7812 170.873 64.5566C170.169 64.333 169.561 63.9971 169.049 63.5488C168.505 63.0693 168.073 62.4775 167.753 61.7734C167.433 61.0371 167.273 60.1895 167.273 59.2295C167.273 58.0771 167.545 56.9092 168.089 55.7246C168.601 54.5088 169.321 53.4209 170.249 52.4609C171.209 51.4688 172.329 50.6533 173.609 50.0127C174.889 49.373 176.281 49.0527 177.785 49.0527C179.001 49.0527 179.945 49.2295 180.617 49.5811C181.289 49.9014 181.625 50.2051 181.625 50.4932C181.625 50.6211 181.561 50.7168 181.433 50.7812C181.305 50.8447 181.193 50.877 181.097 50.877C181.065 50.8447 181.033 50.8291 181.001 50.8291L180.953 50.8291C180.569 50.4775 180.137 50.2051 179.657 50.0127C179.177 49.7891 178.473 49.6768 177.545 49.6768C176.297 49.6768 175.161 49.9492 174.137 50.4932C173.145 51.0049 172.297 51.6934 171.593 52.5566C170.889 53.3887 170.345 54.3174 169.961 55.3408C169.577 56.3652 169.385 57.373 169.385 58.3652C169.385 60.2852 169.833 61.6768 170.729 62.541C171.625 63.4053 172.745 63.8369 174.089 63.8369C175.177 63.8369 176.313 63.5654 177.497 63.0215C178.681 62.4775 179.737 61.709 180.665 60.7168C180.153 59.5654 179.897 58.0615 179.897 56.2051C179.897 54.9893 180.121 53.9326 180.569 53.0371C181.017 52.1406 181.657 51.6934 182.489 51.6934C183.641 51.6934 184.217 52.3652 184.217 53.709C184.217 55.0527 184.025 56.2695 183.641 57.3574C183.257 58.4131 182.745 59.373 182.105 60.2373C183.001 61.9014 184.249 62.7334 185.849 62.7334C187.065 62.7334 188.361 62.2207 189.737 61.1973C191.145 60.1729 192.521 58.6855 193.865 56.7334C194.185 56.2529 194.473 55.7568 194.729 55.2451C194.985 54.7334 195.241 54.2207 195.497 53.709L196.409 53.9492L196.409 53.9492Z" fill="rgb(0,0,0)" fill-rule="nonzero" />
	<path id="Форма 1" d="M203.076 32.4932C203.076 30.6689 202.772 29.2129 202.164 28.125C201.588 27.0049 200.612 26.4453 199.236 26.4453C198.756 26.4453 198.308 26.6055 197.892 26.9248C197.508 27.2129 197.172 27.6133 196.884 28.125C196.596 28.6367 196.372 29.2295 196.212 29.9014C196.052 30.5732 195.972 31.293 195.972 32.0615C195.972 34.1729 195.988 36.0928 196.02 37.8213C196.052 39.5488 196.084 41.1807 196.116 42.7168C196.18 44.2529 196.244 45.7412 196.308 47.1807C196.372 48.6211 196.436 50.0928 196.5 51.5967C197.428 50.3486 198.292 48.9248 199.092 47.3252C199.892 45.6934 200.58 44.0293 201.156 42.333C201.764 40.6055 202.228 38.8926 202.548 37.1973C202.9 35.501 203.076 33.9326 203.076 32.4932ZM220.452 53.9492C220.228 54.4287 219.988 54.9248 219.732 55.4375C219.508 55.9492 219.22 56.4287 218.868 56.877C217.108 59.373 215.108 61.3408 212.868 62.7812C210.628 64.1895 208.404 64.8926 206.196 64.8926C204.82 64.8926 203.508 64.5732 202.26 63.9326C201.012 63.3252 199.908 62.333 198.948 60.957C198.82 60.7969 198.756 60.6533 198.756 60.5254C198.756 60.2373 198.948 60.0928 199.332 60.0928C199.364 60.0928 199.476 60.125 199.668 60.1895C199.924 60.1895 200.212 60.2852 200.532 60.4775C200.884 60.6367 201.38 60.7168 202.02 60.7168C203.012 60.7168 203.94 60.541 204.804 60.1895C205.668 59.8369 206.404 59.3887 207.012 58.8447C207.652 58.2695 208.148 57.6289 208.5 56.9248C208.852 56.1895 209.028 55.4375 209.028 54.6689C209.028 53.709 208.772 52.877 208.26 52.1729C207.78 51.4688 206.948 51.1172 205.764 51.1172C204.548 51.1172 203.428 51.5488 202.404 52.4131C201.38 53.2451 200.452 54.2695 199.62 55.4854C198.82 56.6689 198.132 57.9326 197.556 59.2773C196.98 60.5889 196.548 61.7412 196.26 62.7334C196.1 63.2773 195.956 63.6133 195.828 63.7412C195.7 63.8691 195.556 63.9326 195.396 63.9326C195.044 63.9326 194.884 63.5967 194.916 62.9248C194.916 62.6367 194.932 62.2852 194.964 61.8691C194.996 61.4531 195.028 61.0049 195.06 60.5254C195.06 60.0449 195.076 59.5654 195.108 59.085C195.14 58.5732 195.156 58.1094 195.156 57.6934C195.156 56.2529 195.124 54.6055 195.06 52.749C194.996 50.8613 194.916 48.9248 194.82 46.9414C194.724 44.9248 194.644 42.9248 194.58 40.9414C194.516 38.957 194.484 37.1328 194.484 35.4688C194.484 34.1572 194.58 32.8926 194.772 31.6768C194.964 30.4287 195.268 29.3408 195.684 28.4131C196.1 27.4531 196.628 26.7012 197.268 26.1572C197.908 25.5811 198.66 25.293 199.524 25.293C200.42 25.293 201.172 25.4531 201.78 25.7734C202.42 26.0615 202.932 26.4932 203.316 27.0693C203.7 27.6133 203.972 28.2852 204.132 29.085C204.324 29.8535 204.42 30.7012 204.42 31.6289C204.42 33.2295 204.196 34.9893 203.748 36.9092C203.3 38.7969 202.708 40.7012 201.972 42.6211C201.236 44.541 200.388 46.3975 199.428 48.1895C198.5 49.9492 197.54 51.4854 196.548 52.7969C196.612 53.7568 196.644 54.749 196.644 55.7734C196.676 56.7969 196.724 57.8848 196.788 59.0371C197.588 57.3086 198.468 55.8213 199.428 54.5732C199.844 54.0293 200.308 53.501 200.82 52.9893C201.364 52.4453 201.924 51.9648 202.5 51.5488C203.108 51.1328 203.748 50.7969 204.42 50.541C205.124 50.2852 205.86 50.1572 206.628 50.1572C207.844 50.1572 208.9 50.4609 209.796 51.0693C210.692 51.6768 211.14 52.6533 211.14 53.9971C211.14 55.2773 210.82 56.3652 210.18 57.2607C209.572 58.1572 208.804 58.9092 207.876 59.5166C206.948 60.0928 205.956 60.5254 204.9 60.8135C203.844 61.1006 202.884 61.2773 202.02 61.3408C201.956 61.3408 201.924 61.3574 201.924 61.3887C201.924 61.4531 201.972 61.5488 202.068 61.6768C202.708 62.4131 203.428 62.9414 204.228 63.2607C205.028 63.5811 205.86 63.7412 206.724 63.7412C207.78 63.7412 208.852 63.5488 209.94 63.165C211.028 62.749 212.068 62.2207 213.06 61.5811C214.052 60.9092 214.964 60.1572 215.796 59.3252C216.66 58.4609 217.364 57.5967 217.908 56.7334C218.228 56.2529 218.516 55.7568 218.772 55.2451C219.028 54.7334 219.284 54.2207 219.54 53.709L220.452 53.9492L220.452 53.9492Z" fill="rgb(208.25,208.25,208.25)" fill-rule="nonzero" />
	<path id="Форма 1" d="M203.076 32.4932C203.076 30.6689 202.772 29.2129 202.164 28.125C201.588 27.0049 200.612 26.4453 199.236 26.4453C198.756 26.4453 198.308 26.6055 197.892 26.9248C197.508 27.2129 197.172 27.6133 196.884 28.125C196.596 28.6367 196.372 29.2295 196.212 29.9014C196.052 30.5732 195.972 31.293 195.972 32.0615C195.972 34.1729 195.988 36.0928 196.02 37.8213C196.052 39.5488 196.084 41.1807 196.116 42.7168C196.18 44.2529 196.244 45.7412 196.308 47.1807C196.372 48.6211 196.436 50.0928 196.5 51.5967C197.428 50.3486 198.292 48.9248 199.092 47.3252C199.892 45.6934 200.58 44.0293 201.156 42.333C201.764 40.6055 202.228 38.8926 202.548 37.1973C202.9 35.501 203.076 33.9326 203.076 32.4932ZM220.452 53.9492C220.228 54.4287 219.988 54.9248 219.732 55.4375C219.508 55.9492 219.22 56.4287 218.868 56.877C217.108 59.373 215.108 61.3408 212.868 62.7812C210.628 64.1895 208.404 64.8926 206.196 64.8926C204.82 64.8926 203.508 64.5732 202.26 63.9326C201.012 63.3252 199.908 62.333 198.948 60.957C198.82 60.7969 198.756 60.6533 198.756 60.5254C198.756 60.2373 198.948 60.0928 199.332 60.0928C199.364 60.0928 199.476 60.125 199.668 60.1895C199.924 60.1895 200.212 60.2852 200.532 60.4775C200.884 60.6367 201.38 60.7168 202.02 60.7168C203.012 60.7168 203.94 60.541 204.804 60.1895C205.668 59.8369 206.404 59.3887 207.012 58.8447C207.652 58.2695 208.148 57.6289 208.5 56.9248C208.852 56.1895 209.028 55.4375 209.028 54.6689C209.028 53.709 208.772 52.877 208.26 52.1729C207.78 51.4688 206.948 51.1172 205.764 51.1172C204.548 51.1172 203.428 51.5488 202.404 52.4131C201.38 53.2451 200.452 54.2695 199.62 55.4854C198.82 56.6689 198.132 57.9326 197.556 59.2773C196.98 60.5889 196.548 61.7412 196.26 62.7334C196.1 63.2773 195.956 63.6133 195.828 63.7412C195.7 63.8691 195.556 63.9326 195.396 63.9326C195.044 63.9326 194.884 63.5967 194.916 62.9248C194.916 62.6367 194.932 62.2852 194.964 61.8691C194.996 61.4531 195.028 61.0049 195.06 60.5254C195.06 60.0449 195.076 59.5654 195.108 59.085C195.14 58.5732 195.156 58.1094 195.156 57.6934C195.156 56.2529 195.124 54.6055 195.06 52.749C194.996 50.8613 194.916 48.9248 194.82 46.9414C194.724 44.9248 194.644 42.9248 194.58 40.9414C194.516 38.957 194.484 37.1328 194.484 35.4688C194.484 34.1572 194.58 32.8926 194.772 31.6768C194.964 30.4287 195.268 29.3408 195.684 28.4131C196.1 27.4531 196.628 26.7012 197.268 26.1572C197.908 25.5811 198.66 25.293 199.524 25.293C200.42 25.293 201.172 25.4531 201.78 25.7734C202.42 26.0615 202.932 26.4932 203.316 27.0693C203.7 27.6133 203.972 28.2852 204.132 29.085C204.324 29.8535 204.42 30.7012 204.42 31.6289C204.42 33.2295 204.196 34.9893 203.748 36.9092C203.3 38.7969 202.708 40.7012 201.972 42.6211C201.236 44.541 200.388 46.3975 199.428 48.1895C198.5 49.9492 197.54 51.4854 196.548 52.7969C196.612 53.7568 196.644 54.749 196.644 55.7734C196.676 56.7969 196.724 57.8848 196.788 59.0371C197.588 57.3086 198.468 55.8213 199.428 54.5732C199.844 54.0293 200.308 53.501 200.82 52.9893C201.364 52.4453 201.924 51.9648 202.5 51.5488C203.108 51.1328 203.748 50.7969 204.42 50.541C205.124 50.2852 205.86 50.1572 206.628 50.1572C207.844 50.1572 208.9 50.4609 209.796 51.0693C210.692 51.6768 211.14 52.6533 211.14 53.9971C211.14 55.2773 210.82 56.3652 210.18 57.2607C209.572 58.1572 208.804 58.9092 207.876 59.5166C206.948 60.0928 205.956 60.5254 204.9 60.8135C203.844 61.1006 202.884 61.2773 202.02 61.3408C201.956 61.3408 201.924 61.3574 201.924 61.3887C201.924 61.4531 201.972 61.5488 202.068 61.6768C202.708 62.4131 203.428 62.9414 204.228 63.2607C205.028 63.5811 205.86 63.7412 206.724 63.7412C207.78 63.7412 208.852 63.5488 209.94 63.165C211.028 62.749 212.068 62.2207 213.06 61.5811C214.052 60.9092 214.964 60.1572 215.796 59.3252C216.66 58.4609 217.364 57.5967 217.908 56.7334C218.228 56.2529 218.516 55.7568 218.772 55.2451C219.028 54.7334 219.284 54.2207 219.54 53.709L220.452 53.9492L220.452 53.9492Z" fill="rgb(0,0,0)" fill-rule="nonzero" />
	<path id="Форма 1" d="M227.219 50.9727C227.219 50.1094 226.995 49.4053 226.547 48.8613C226.131 48.2852 225.443 47.9971 224.483 47.9971C223.971 47.9971 223.507 48.1572 223.091 48.4775C222.675 48.7969 222.323 49.2295 222.035 49.7734C221.747 50.2852 221.523 50.8926 221.363 51.5967C221.203 52.3008 221.123 53.0371 221.123 53.8047C221.123 55.0215 221.251 56.1094 221.507 57.0693C221.795 57.9971 222.195 58.8135 222.707 59.5166C223.379 58.9727 223.987 58.3486 224.531 57.6455C225.075 56.9414 225.539 56.2051 225.923 55.4375C226.339 54.6689 226.659 53.9014 226.883 53.1328C227.107 52.3652 227.219 51.6455 227.219 50.9727ZM239.363 53.9492C239.139 54.4287 238.899 54.9248 238.643 55.4375C238.419 55.917 238.131 56.3975 237.779 56.877C236.211 59.1172 234.419 60.8135 232.403 61.9648C230.419 63.085 228.515 63.6455 226.691 63.6455C225.667 63.6455 224.707 63.4688 223.811 63.1172C222.947 62.7646 222.195 62.2373 221.555 61.5332C220.915 60.8291 220.403 59.9492 220.019 58.8926C219.635 57.8369 219.443 56.5889 219.443 55.1494C219.443 54.1895 219.587 53.2295 219.875 52.2695C220.163 51.3086 220.547 50.4453 221.027 49.6768C221.539 48.9092 222.115 48.2852 222.755 47.8047C223.427 47.3252 224.131 47.085 224.867 47.085C226.051 47.085 226.915 47.4375 227.459 48.1406C228.003 48.8135 228.275 49.6768 228.275 50.7334C228.275 52.1729 227.827 53.7412 226.931 55.4375C226.067 57.1006 224.819 58.6533 223.187 60.0928C224.403 61.4688 225.971 62.1572 227.891 62.1572C229.331 62.1572 230.835 61.7246 232.403 60.8613C233.971 59.9648 235.443 58.5889 236.819 56.7334C237.171 56.2852 237.459 55.8047 237.683 55.293C237.939 54.749 238.195 54.2207 238.451 53.709L239.363 53.9492L239.363 53.9492Z" fill="rgb(208.25,208.25,208.25)" fill-rule="nonzero" />
	<path id="Форма 1" d="M227.219 50.9727C227.219 50.1094 226.995 49.4053 226.547 48.8613C226.131 48.2852 225.443 47.9971 224.483 47.9971C223.971 47.9971 223.507 48.1572 223.091 48.4775C222.675 48.7969 222.323 49.2295 222.035 49.7734C221.747 50.2852 221.523 50.8926 221.363 51.5967C221.203 52.3008 221.123 53.0371 221.123 53.8047C221.123 55.0215 221.251 56.1094 221.507 57.0693C221.795 57.9971 222.195 58.8135 222.707 59.5166C223.379 58.9727 223.987 58.3486 224.531 57.6455C225.075 56.9414 225.539 56.2051 225.923 55.4375C226.339 54.6689 226.659 53.9014 226.883 53.1328C227.107 52.3652 227.219 51.6455 227.219 50.9727ZM239.363 53.9492C239.139 54.4287 238.899 54.9248 238.643 55.4375C238.419 55.917 238.131 56.3975 237.779 56.877C236.211 59.1172 234.419 60.8135 232.403 61.9648C230.419 63.085 228.515 63.6455 226.691 63.6455C225.667 63.6455 224.707 63.4688 223.811 63.1172C222.947 62.7646 222.195 62.2373 221.555 61.5332C220.915 60.8291 220.403 59.9492 220.019 58.8926C219.635 57.8369 219.443 56.5889 219.443 55.1494C219.443 54.1895 219.587 53.2295 219.875 52.2695C220.163 51.3086 220.547 50.4453 221.027 49.6768C221.539 48.9092 222.115 48.2852 222.755 47.8047C223.427 47.3252 224.131 47.085 224.867 47.085C226.051 47.085 226.915 47.4375 227.459 48.1406C228.003 48.8135 228.275 49.6768 228.275 50.7334C228.275 52.1729 227.827 53.7412 226.931 55.4375C226.067 57.1006 224.819 58.6533 223.187 60.0928C224.403 61.4688 225.971 62.1572 227.891 62.1572C229.331 62.1572 230.835 61.7246 232.403 60.8613C233.971 59.9648 235.443 58.5889 236.819 56.7334C237.171 56.2852 237.459 55.8047 237.683 55.293C237.939 54.749 238.195 54.2207 238.451 53.709L239.363 53.9492L239.363 53.9492Z" fill="rgb(0,0,0)" fill-rule="nonzero" />
</svg>
