<svg viewBox="0 0 8.88428 6.04785" xmlns="http://www.w3.org/2000/svg" xmlns:xlink="http://www.w3.org/1999/xlink" width="8.884277" height="6.047852" fill="none" customFrame="#000000">
	<path id="Vector" d="M3.50319 6.04747C3.41568 6.04765 3.329 6.03054 3.24811 5.99714C3.16723 5.96373 3.09374 5.91468 3.03186 5.8528L0.203858 3.02414C0.140142 2.96268 0.0893036 2.88915 0.0543079 2.80784C0.0193123 2.72653 0.000860558 2.63907 2.939e-05 2.55055C-0.000801778 2.46203 0.0160042 2.37423 0.0494669 2.29228C0.0829295 2.21033 0.132379 2.13586 0.194929 2.07322C0.257479 2.01058 0.331878 1.96102 0.413784 1.92745C0.495691 1.89387 0.583464 1.87694 0.671983 1.87764C0.760503 1.87835 0.847995 1.89668 0.929355 1.93156C1.01072 1.96644 1.08431 2.01717 1.14586 2.0808L3.50252 4.43747L7.74586 0.195468C7.87086 0.0703746 8.04044 6.25525e-05 8.21729 4.17167e-08C8.39413 -6.24691e-05 8.56376 0.0701297 8.68886 0.195135C8.81395 0.32014 8.88426 0.489719 8.88433 0.666566C8.88439 0.843413 8.8142 1.01304 8.68919 1.13813L3.97452 5.8528C3.91264 5.91468 3.83915 5.96373 3.75827 5.99714C3.67739 6.03054 3.5907 6.04765 3.50319 6.04747Z" fill="rgb(255,248.793,243.738)" fill-rule="nonzero" />
</svg>
