<svg viewBox="0 0 8.59998 8.59961" xmlns="http://www.w3.org/2000/svg" xmlns:xlink="http://www.w3.org/1999/xlink" width="8.599976" height="8.599609" fill="none" customFrame="#000000">
	<g id="Сочетание 1">
		<path id="Vector" d="M1.5 5.3336L1.8 5.3336C1.79997 5.27525 1.78293 5.21818 1.75096 5.16937C1.71899 5.12057 1.67348 5.08214 1.62 5.0588L1.5 5.3336ZM7.1 5.3336L6.98 5.0588C6.92652 5.08214 6.88101 5.12057 6.84904 5.16937C6.81707 5.21818 6.80003 5.27525 6.8 5.3336L7.1 5.3336ZM5.8 2.3C5.8 2.37957 5.83161 2.45587 5.88787 2.51213C5.94413 2.56839 6.02043 2.6 6.1 2.6C6.17956 2.6 6.25587 2.56839 6.31213 2.51213C6.36839 2.45587 6.4 2.37957 6.4 2.3L5.8 2.3ZM2.2 2.3C2.2 2.37957 2.23161 2.45587 2.28787 2.51213C2.34413 2.56839 2.42043 2.6 2.5 2.6C2.57957 2.6 2.65587 2.56839 2.71213 2.51213C2.76839 2.45587 2.8 2.37957 2.8 2.3L2.2 2.3ZM2.3 1.2C1.69 1.2 1.10499 1.44232 0.673654 1.87365C0.242321 2.30499 5.11242e-09 2.89 5.11242e-09 3.5L0.6 3.5C0.6 3.04913 0.779107 2.61673 1.09792 2.29792C1.41673 1.97911 1.84913 1.8 2.3 1.8L2.3 1.2ZM6.3 1.8C6.75087 1.8 7.18327 1.97911 7.50208 2.29792C7.82089 2.61673 8 3.04913 8 3.5L8.6 3.5C8.6 2.89 8.35768 2.30499 7.92635 1.87365C7.49501 1.44232 6.91 1.2 6.3 1.2L6.3 1.8ZM5.5 8L3.1 8L3.1 8.6L5.5 8.6L5.5 8ZM3.1 8C2.7144 8 2.4552 7.9992 2.262 7.9732C2.0776 7.9484 1.9984 7.9056 1.9464 7.8532L1.5224 8.278C1.7044 8.46 1.9312 8.534 2.1824 8.568C2.4248 8.6008 2.7312 8.6 3.1 8.6L3.1 8ZM1.2 6.7C1.2 7.0688 1.1992 7.3752 1.232 7.6176C1.2656 7.8688 1.34 8.0956 1.522 8.2776L1.9464 7.8536C1.8944 7.8016 1.8516 7.7224 1.8264 7.5376C1.8008 7.3448 1.8 7.0856 1.8 6.7L1.2 6.7ZM6.8 6.7C6.8 7.0856 6.7992 7.3448 6.7732 7.538C6.7484 7.7224 6.7056 7.8016 6.6532 7.8536L7.078 8.2776C7.26 8.0956 7.334 7.8688 7.368 7.6176C7.4008 7.3752 7.4 7.0688 7.4 6.7L6.8 6.7ZM5.5 8.6C5.8688 8.6 6.1752 8.6008 6.4176 8.568C6.6688 8.5344 6.896 8.46 7.078 8.2776L6.6536 7.8536C6.6016 7.9056 6.5224 7.9484 6.3376 7.9736C6.1448 7.9992 5.8856 8 5.5 8L5.5 8.6ZM2.3 1.8C2.3856 1.8 2.4692 1.8064 2.5512 1.8184L2.6388 1.2248C2.52663 1.20825 2.41339 1.19996 2.3 1.2L2.3 1.8ZM4.3 0C3.86111 4.53708e-07 3.43324 0.137459 3.07647 0.393074C2.7197 0.648689 2.45194 1.00962 2.3108 1.4252L2.8788 1.618C2.97967 1.32112 3.17098 1.06329 3.42588 0.88071C3.68077 0.698128 3.98646 0.599963 4.3 0.6L4.3 0ZM2.3108 1.4252C2.23721 1.64256 2.19978 1.87052 2.2 2.1L2.8 2.1C2.8 1.9308 2.828 1.7688 2.8792 1.618L2.3108 1.4252ZM6.3 1.2C6.1852 1.2 6.072 1.2084 5.9612 1.2248L6.0492 1.8184C6.13224 1.80614 6.21606 1.79999 6.3 1.8L6.3 1.2ZM4.3 0.6C4.61348 0.600047 4.91907 0.69825 5.17389 0.880827C5.4287 1.0634 5.61996 1.32119 5.7208 1.618L6.2888 1.4252C6.14768 1.00969 5.87998 0.6488 5.52329 0.39319C5.1666 0.137581 4.73882 8.40097e-05 4.3 0L4.3 0.6ZM5.7208 1.618C5.772 1.7688 5.8 1.9308 5.8 2.1L6.4 2.1C6.4 1.8644 6.3608 1.6376 6.2888 1.4252L5.7212 1.618L5.7208 1.618ZM1.8 6.7L1.8 5.3336L1.2 5.3336L1.2 6.7L1.8 6.7ZM1.62 5.0588C1.31675 4.9264 1.05872 4.70839 0.877545 4.43151C0.696366 4.15462 0.59991 3.83089 0.6 3.5L5.11242e-09 3.5C-2.98287e-05 3.94759 0.130514 4.38546 0.375634 4.75996C0.620753 5.13446 0.9698 5.42932 1.38 5.6084L1.62 5.0588ZM6.8 5.3336L6.8 6.7L7.4 6.7L7.4 5.3336L6.8 5.3336ZM8 3.5C8.00009 3.83089 7.90363 4.15462 7.72246 4.43151C7.54128 4.70839 7.28325 4.9264 6.98 5.0588L7.22 5.6084C7.6302 5.42932 7.97925 5.13446 8.22437 4.75996C8.46949 4.38546 8.60003 3.94759 8.6 3.5L8 3.5ZM5.8 2.1L5.8 2.3L6.4 2.3L6.4 2.1L5.8 2.1ZM2.2 2.1L2.2 2.3L2.8 2.3L2.8 2.1L2.2 2.1Z" fill="rgb(48.875,43.5325,39.1815)" fill-rule="nonzero" />
		<path id="Vector" d="M4.30005 3.49783L4.09245 3.71463C4.1483 3.76817 4.22268 3.79806 4.30005 3.79806C4.37742 3.79806 4.4518 3.76817 4.50765 3.71463L4.30005 3.49783ZM4.09445 4.72543C3.92765 4.60303 3.74325 4.44943 3.60365 4.28863C3.45645 4.11823 3.40005 3.98583 3.40005 3.89983L2.80005 3.89983C2.80005 4.20783 2.97645 4.48023 3.15005 4.68103C3.33125 4.89063 3.55565 5.07423 3.73965 5.20903L4.09445 4.72543ZM3.40005 3.89983C3.40005 3.66943 3.50525 3.56943 3.59685 3.53703C3.69685 3.50183 3.88245 3.51303 4.09285 3.71463L4.50765 3.28103C4.17765 2.96503 3.76325 2.84303 3.39845 2.97103C3.02485 3.10183 2.80005 3.46103 2.80005 3.89983L3.40005 3.89983ZM4.86005 5.20943C5.04405 5.07423 5.26885 4.89063 5.45005 4.68103C5.62365 4.48023 5.80005 4.20783 5.80005 3.89983L5.20005 3.89983C5.20005 3.98583 5.14365 4.11823 4.99605 4.28863C4.85685 4.44983 4.67245 4.60303 4.50565 4.72543L4.86045 5.20943L4.86005 5.20943ZM5.80005 3.89983C5.80005 3.46103 5.57485 3.10183 5.20165 2.97103C4.83685 2.84303 4.42245 2.96543 4.09245 3.28103L4.50765 3.71463C4.71765 3.51303 4.90325 3.50183 5.00365 3.53703C5.09485 3.56903 5.20005 3.66943 5.20005 3.89983L5.80005 3.89983ZM3.74005 5.20943C3.88725 5.31743 4.05285 5.45223 4.30005 5.45223L4.30005 4.85223C4.29045 4.85223 4.28405 4.85223 4.26245 4.84063C4.20406 4.80585 4.14794 4.76737 4.09445 4.72543L3.73965 5.20943L3.74005 5.20943ZM4.50565 4.72543C4.45216 4.76737 4.39604 4.80585 4.33765 4.84063C4.31605 4.85223 4.30965 4.85223 4.30005 4.85223L4.30005 5.45223C4.54725 5.45223 4.71285 5.31743 4.86005 5.20943L4.50565 4.72543Z" opacity="0.5" fill="rgb(48.875,43.5325,39.1815)" fill-rule="nonzero" />
		<path id="Vector" d="M1.5 6.7002L7.1 6.7002" opacity="0.5" stroke="rgb(48.875,43.5325,39.1815)" stroke-linecap="round" stroke-linejoin="round" stroke-width="1.5" />
	</g>
</svg>
