<svg viewBox="0 0 18.884 18.915" xmlns="http://www.w3.org/2000/svg" xmlns:xlink="http://www.w3.org/1999/xlink" width="18.884033" height="18.915039" fill="none" customFrame="#000000">
	<g id="Сочетание 1">
		<path id="Vector" d="M13.4419 4.45801C13.4419 4.19279 13.5473 3.93844 13.7348 3.7509C13.9223 3.56336 14.1767 3.45801 14.4419 3.45801C14.7071 3.45801 14.9615 3.56336 15.149 3.7509C15.3365 3.93844 15.4419 4.19279 15.4419 4.45801C15.4419 4.72322 15.3365 4.97758 15.149 5.16511C14.9615 5.35265 14.7071 5.45801 14.4419 5.45801C14.1767 5.45801 13.9223 5.35265 13.7348 5.16511C13.5473 4.97758 13.4419 4.72322 13.4419 4.45801Z" fill="rgb(205.523,170.071,208.25)" fill-rule="nonzero" />
		<path id="Vector" d="M9.44189 4.70801C8.18212 4.70801 6.97394 5.20845 6.08314 6.09925C5.19234 6.99005 4.69189 8.19823 4.69189 9.45801C4.69189 10.7178 5.19234 11.926 6.08314 12.8168C6.97394 13.7076 8.18212 14.208 9.44189 14.208C10.7017 14.208 11.9099 13.7076 12.8007 12.8168C13.6914 11.926 14.1919 10.7178 14.1919 9.45801C14.1919 8.19823 13.6914 6.99005 12.8007 6.09925C11.9099 5.20845 10.7017 4.70801 9.44189 4.70801ZM6.19189 9.45801C6.19189 8.59605 6.5343 7.7694 7.1438 7.15991C7.75329 6.55042 8.57994 6.20801 9.44189 6.20801C10.3038 6.20801 11.1305 6.55042 11.74 7.15991C12.3495 7.7694 12.6919 8.59605 12.6919 9.45801C12.6919 10.32 12.3495 11.1466 11.74 11.7561C11.1305 12.3656 10.3038 12.708 9.44189 12.708C8.57994 12.708 7.75329 12.3656 7.1438 11.7561C6.5343 11.1466 6.19189 10.32 6.19189 9.45801Z" fill="rgb(205.523,170.071,208.25)" fill-rule="evenodd" />
		<path id="Vector" d="M14.6999 0.290553C11.2053 -0.0968511 7.67858 -0.0968511 4.18395 0.290553C2.17195 0.515553 0.54695 2.10055 0.31095 4.12255C-0.10365 7.66714 -0.10365 11.248 0.31095 14.7926C0.54695 16.8146 2.17095 18.3996 4.18395 18.6246C7.6786 19.0116 11.2053 19.0116 14.6999 18.6246C16.7119 18.3996 18.337 16.8146 18.573 14.7926C18.9876 11.248 18.9876 7.66713 18.573 4.12255C18.337 2.10055 16.7129 0.515553 14.6999 0.290553ZM4.34995 1.78055C7.73425 1.40543 11.1496 1.40543 14.5339 1.78055C15.8639 1.93055 16.9289 2.97955 17.084 4.29755C17.4849 7.72587 17.4849 11.1892 17.084 14.6176C17.0038 15.2626 16.7085 15.8618 16.2458 16.3183C15.7831 16.7748 15.18 17.062 14.5339 17.1336C11.1496 17.5087 7.73425 17.5087 4.34995 17.1336C3.70389 17.062 3.1008 16.7748 2.6381 16.3183C2.17541 15.8618 1.88012 15.2626 1.79995 14.6176C1.399 11.1892 1.399 7.72587 1.79995 4.29755C1.88012 3.65251 2.17541 3.05333 2.6381 2.5968C3.1008 2.14028 3.70389 1.85206 4.34995 1.78055Z" fill="rgb(205.523,170.071,208.25)" fill-rule="evenodd" />
	</g>
</svg>
